# xmcd
#
# Track frame offsets:
#   150
#   17682
#   35653
#   49420
#   64129
#   76706
#   87957
#   99243
#   114087
#   126740
#   150520
#   165994
#   184320
#   196656
#   210091
#   231915
#
# Disc length: 3252 seconds
#
# Revision: 0
# Processed by: cddbd v1.5.2PL0 Copyright (c) Steve Scherf et al.
# Submitted via: GXTranscoder 2.0.1939
#
DISCID=c20cb210
DTITLE=Harry Belafonte - Die schönsten Songs
DYEAR=1970
DGENRE=Latin
TTITLE0=Angelina
TTITLE1=Midnight Special
TTITLE2=Day-O (Banana Boat Song)
TTITLE3=Coconanut Woman
TTITLE4=Island in the sun
TTITLE5=Matilda
TTITLE6=Man Smart (Woman Smarter)
TTITLE7=Kingston Market
TTITLE8=Jamaica Farewell
TTITLE9=Cotton Fields
TTITLE10=Scarborough Fair
TTITLE11=Try To Remember
TTITLE12=Scarlet Ribbons
TTITLE13=Mary's Boy Child
TTITLE14=Mr. Bojangles
TTITLE15=Sunflower
EXTD=
EXTT0=
EXTT1=
EXTT2=
EXTT3=
EXTT4=
EXTT5=
EXTT6=
EXTT7=
EXTT8=
EXTT9=
EXTT10=
EXTT11=
EXTT12=
EXTT13=
EXTT14=
EXTT15=
PLAYORDER=
